<?xml version="1.0" encoding="utf-8"?>
<!-- Generator: Adobe Illustrator 20.1.0, SVG Export Plug-In . SVG Version: 6.00 Build 0)  -->
<svg version="1.1" id="BC_ID" xmlns="http://www.w3.org/2000/svg" xmlns:xlink="http://www.w3.org/1999/xlink" x="0px" y="0px"
	 viewBox="0 0 792 612" style="enable-background:new 0 0 792 612;" xml:space="preserve">
<style type="text/css">
	.st0{fill:#FDB913;}
	.st1{fill:#004B8D;}
	.st2{fill:none;}
	.st3{fill:url(#SVGID_1_);}
	.st4{fill:url(#SVGID_2_);}
	.st5{fill:url(#SVGID_3_);}
	.st6{fill:url(#SVGID_4_);}
	.st7{fill:url(#SVGID_5_);}
	.st8{fill:url(#SVGID_6_);}
	.st9{fill:url(#SVGID_7_);}
	.st10{fill:url(#SVGID_8_);}
	.st11{fill:url(#SVGID_9_);}
	.st12{fill:url(#SVGID_10_);}
	.st13{fill:url(#SVGID_11_);}
	.st14{fill:url(#SVGID_12_);}
	.st15{fill:url(#SVGID_13_);}
	.st16{font-family:'AGaramondPro-Regular';}
	.st17{font-size:37px;}
</style>
<g>
	<rect x="390.6" y="352.3" class="st0" width="314.7" height="3.8"/>
	<g>
		<path class="st1" d="M398.7,215.9c0-6.4-0.5-8.1-4.8-8.4l-3-0.2c-0.5-0.4-0.4-2.1,0.1-2.2c5.2-0.5,11.7-0.7,20.6-0.7
			c6,0,11.8,0.4,16.1,2.4c4.1,1.8,7.3,5.3,7.3,10.8c0,6.2-4,9.4-9.8,11.8c0,0.9,0.8,1.1,1.8,1.3c5.2,0.9,12.8,5.2,12.8,14.4
			c0,10-8.2,16.7-25.5,16.7c-2.8,0-7.5-0.3-11.5-0.3c-4.2,0-7.5,0.2-11,0.3c-0.6-0.3-0.8-1.6-0.2-2.2l1.7-0.3
			c5.1-0.8,5.3-1.7,5.3-10.8V215.9z M406.5,227.4c0,2.4,0.1,2.6,5,2.4c9.8-0.3,15-2.9,15-11c0-8.5-7-11.7-14.3-11.7
			c-2.1,0-3.5,0.2-4.4,0.5c-1,0.3-1.3,0.7-1.3,2.2V227.4z M406.5,247.4c0,3.1,0.2,7.5,2,9.4c1.8,2,4.7,2.4,7.6,2.4
			c8.5,0,15-3.5,15-12.1c0-6.8-3.8-14.8-19.1-14.8c-5.2,0-5.6,0.5-5.6,2.2V247.4z"/>
		<path class="st1" d="M506.5,224.4c0-7.8-0.2-9.1-5-9.4l-2-0.1c-0.5-0.3-0.3-1.6,0.2-1.8c4.1,0.1,6.9,0.2,10.3,0.2
			c3.3,0,6.1-0.1,10.1-0.2c0.5,0.2,0.7,1.5,0.2,1.8l-2,0.1c-4.8,0.4-5,1.6-5,9.4v26.2c0,7.8,0.2,8.8,5,9.4l2,0.2
			c0.5,0.3,0.3,1.6-0.2,1.8c-4.1-0.1-6.9-0.2-10.1-0.2c-3.4,0-6.2,0.1-10.3,0.2c-0.5-0.2-0.7-1.4-0.2-1.8l2-0.2c4.8-0.5,5-1.5,5-9.4
			V224.4z"/>
		<path class="st1" d="M551.9,250.8c0,7.7,0.2,8.8,4.6,9.2l2.5,0.2c0.5,0.3,0.3,1.6-0.2,1.8c-4.4-0.1-7-0.2-10-0.2
			c-3.1,0-5.8,0.1-10.7,0.2c-0.5-0.2-0.6-1.5,0-1.8l2.8-0.2c4.4-0.4,4.8-1.5,4.8-9.2v-33c0-2.3,0-2.4-2.3-2.4h-4.2
			c-3.3,0-7.5,0.1-9.4,1.8c-1.8,1.6-2.6,3.2-3.4,5.1c-0.6,0.4-1.7,0.1-2-0.5c1.2-3.3,2.4-8,2.9-11c0.2-0.1,1.2-0.2,1.5,0
			c0.5,2.4,3,2.3,6.5,2.3h31.1c4.1,0,4.8-0.1,6-2.1c0.4-0.1,1.2-0.1,1.4,0.2c-0.8,3-1.4,9-1.2,11.2c-0.3,0.6-1.6,0.6-2,0.1
			c-0.2-1.8-0.8-4.6-1.9-5.4c-1.8-1.3-4.7-1.8-8.9-1.8h-5.4c-2.3,0-2.2,0.1-2.2,2.5V250.8z"/>
		<path class="st1" d="M584.7,224.4c0-7.8-0.2-9.1-5-9.4l-2-0.1c-0.5-0.3-0.3-1.6,0.2-1.8c4.1,0.1,6.9,0.2,10.3,0.2
			c3.3,0,6.1-0.1,10.1-0.2c0.5,0.2,0.7,1.5,0.2,1.8l-2,0.1c-4.8,0.4-5,1.6-5,9.4v26.2c0,7.8,0.2,8.8,5,9.4l2,0.2
			c0.5,0.3,0.3,1.6-0.2,1.8c-4.1-0.1-6.9-0.2-10.1-0.2c-3.4,0-6.2,0.1-10.3,0.2c-0.5-0.2-0.7-1.4-0.2-1.8l2-0.2c4.8-0.5,5-1.5,5-9.4
			V224.4z"/>
		<path class="st1" d="M621.4,262.8c-7.3,0-11.9-1.9-13.6-2.7c-1-1.6-2.2-6.9-2.3-10.3c0.4-0.5,1.7-0.7,2.1-0.2
			c1.3,3.8,4.9,11,15,11c7.3,0,10.9-4.1,10.9-8.5c0-3.2-0.8-6.9-7.1-10.3l-8.3-4.6c-4.3-2.4-9.4-6.6-9.4-12.7
			c0-7,6.4-12.7,17.7-12.7c2.7,0,5.8,0.4,8.1,1c1.1,0.3,2.3,0.4,3,0.4c0.8,1.8,1.6,5.9,1.6,9c-0.3,0.4-1.7,0.7-2.2,0.2
			c-1.1-3.5-3.5-8.3-11.8-8.3c-8.5,0-10.4,4.8-10.4,8.2c0,4.3,4.2,7.4,7.4,9.1l7,3.7c5.5,2.9,10.9,7.2,10.9,14.2
			C639.9,257.3,632.7,262.8,621.4,262.8z"/>
		<path class="st1" d="M665.2,238.1c-3.8,0-4,0.1-4,2.4v10.4c0,7.7,0.4,8.8,4.8,9.2l2.3,0.2c0.5,0.3,0.3,1.6-0.2,1.8
			c-4.3-0.1-7-0.2-10.1-0.2c-3.4,0-6.1,0.1-9.2,0.2c-0.5-0.2-0.6-1.4-0.2-1.8l1.3-0.2c4.4-0.7,4.6-1.5,4.6-9.2v-26.5
			c0-7.7-0.6-9-4.7-9.3l-2.1-0.1c-0.5-0.3-0.3-1.6,0.2-1.8c3.9,0.1,6.6,0.2,10,0.2c3.1,0,5.8-0.1,9.2-0.2c0.5,0.2,0.6,1.5,0.2,1.8
			L666,215c-4.6,0.4-4.8,1.5-4.8,9.3v8.5c0,2.3,0.2,2.4,4,2.4h22.7c3.8,0,4-0.1,4-2.4v-8.5c0-7.7-0.2-8.8-4.8-9.3l-1.5-0.1
			c-0.5-0.3-0.3-1.6,0.2-1.8c3.7,0.1,6.3,0.2,9.6,0.2c3.1,0,5.8-0.1,9.4-0.2c0.5,0.2,0.6,1.5,0.2,1.8l-1.7,0.1
			c-4.6,0.4-4.8,1.5-4.8,9.3v26.5c0,7.7,0.2,8.7,4.8,9.2l1.9,0.2c0.5,0.3,0.3,1.6-0.2,1.8c-3.8-0.1-6.5-0.2-9.6-0.2
			c-3.3,0-6.1,0.1-9.6,0.2c-0.5-0.2-0.6-1.4-0.2-1.8l1.5-0.2c4.8-0.7,4.8-1.5,4.8-9.2v-10.4c0-2.2-0.2-2.4-4-2.4H665.2z"/>
		<path class="st1" d="M353.3,278.3c6.5-5.1,14.8-7.6,24.1-7.6c4.8,0,11.6,1,15.8,2.1c1.1,0.3,1.7,0.4,2.5,0.4
			c0.1,2,0.5,7.7,1.2,13.1c-0.4,0.6-1.8,0.7-2.4,0.2c-1.3-6.1-5.4-13-18.3-13c-13.7,0-25.3,8.6-25.3,27.1c0,18.7,11.9,29,26.5,29
			c11.5,0,16.6-7.5,18.7-12.7c0.6-0.4,2-0.3,2.3,0.4c-0.6,4.6-2.9,10.5-4.3,12.2c-1.1,0.2-2.1,0.5-3.1,0.9c-2,0.7-8.4,2-14.1,2
			c-8,0-15.7-1.6-22.2-6c-7.1-4.9-12.7-13-12.7-24.5C342,292,346.5,283.5,353.3,278.3z"/>
		<path class="st1" d="M402.1,307.1c0-14.7,11.6-26,27.6-26c17.9,0,26.9,12.3,26.9,25.3c0,14.9-11.9,25.7-26.9,25.7
			C412.5,332.1,402.1,320.4,402.1,307.1z M448.8,308.6c0-12.2-5.7-25.3-20.4-25.3c-8.1,0-18.5,5.2-18.5,21.4
			c0,10.9,5.6,25.1,20.8,25.1C440,329.8,448.8,323.2,448.8,308.6z"/>
		<path class="st1" d="M543.9,300.7c0-4.6-0.2-13.1-1.5-15.3c-0.5-0.9-2-1.4-3.9-1.5l-2-0.1c-0.5-0.5-0.3-1.5,0.2-1.8
			c3,0.1,5.9,0.2,8.9,0.2c3.3,0,5.4-0.1,8.2-0.2c0.6,0.4,0.5,1.3,0.2,1.8l-1.9,0.1c-2,0.1-3.4,0.8-3.9,1.8c-1.1,2.4-1.1,10.9-1.1,15
			v8.3c0,6.4-1.1,13.2-5.5,17.6c-3.4,3.5-9.1,5.4-14.9,5.4c-5.4,0-10.8-1-14.6-4.1c-4.1-3.2-6.1-8.6-6.1-17.4v-17.4
			c0-7.7-0.2-8.9-4.7-9.3l-2-0.1c-0.5-0.3-0.3-1.5,0.2-1.8c3.9,0.1,6.6,0.2,9.7,0.2c3.2,0,5.8-0.1,9.6-0.2c0.5,0.2,0.6,1.5,0.2,1.8
			l-1.9,0.1c-4.5,0.4-4.7,1.6-4.7,9.3v15.9c0,11.9,3.9,19.7,15.9,19.7c11.3,0,15.6-8.4,15.6-19.6V300.7z"/>
		<path class="st1" d="M634.7,291.5c0-5.5-0.3-6.9-4.2-7.2l-2.8-0.3c-0.3-0.3-0.5-1.8,0.1-1.8c4.7-0.3,10.5-0.6,18.6-0.6
			c5.4,0,10.6,0.4,14.5,2.1c3.7,1.6,6.6,4.5,6.6,9.3c0,5.4-3.6,8.1-8.8,10.2c0,0.7,0.7,1,1.6,1.1c4.7,0.7,11.6,4.5,11.6,12.4
			c0,8.6-7.4,14.4-23,14.4c-2.5,0-6.7-0.2-10.4-0.2c-3.8,0-6.7,0.1-9.9,0.2c-0.5-0.2-0.7-1.4-0.2-1.9l1.6-0.2
			c4.6-0.7,4.8-1.5,4.8-9.3V291.5z M641.8,301.4c0,2.1,0.1,2.2,4.5,2.1c8.8-0.3,13.6-2.5,13.6-9.5c0-7.3-6.3-10.1-12.9-10.1
			c-1.9,0-3.2,0.1-4,0.4c-0.9,0.2-1.2,0.6-1.2,1.9V301.4z M641.8,318.7c0,2.7,0.2,6.5,1.8,8.1c1.6,1.7,4.2,2.1,6.8,2.1
			c7.7,0,13.6-3,13.6-10.4c0-5.9-3.5-12.7-17.2-12.7c-4.7,0-5,0.4-5,1.9V318.7z"/>
		<g>
			<g>
				<path class="st1" d="M493.9,260.3l-2-0.2c-0.4,0-0.8-0.1-1.1-0.2c-3-0.5-4.2-3.2-5.6-5.7l-7.1-12.3c-1.2-2.1-2.5-4.8-5.3-5.2
					c7.3-0.9,13.8-5.1,13.8-12.2c0-8.3-8.2-12-16.5-12c-5,0-9.5,0.1-14.6,0.1c-2.8,0-6.1-0.1-8.9-0.1c-1.6,0-1.6,0.3-1.6,1.2
					c0,1.3,0.5,0.9,2.2,1c5.9,0.3,5.7,1.4,5.7,6.5v32.3c0,4.6,0.4,6-4.5,6.4c0,0-0.7,0.1-1.2,0.1l-2.1,0.2c-0.5,0.4-0.3,1.6,0.2,1.8
					c1.1,0,3-0.1,3-0.1c2.7-0.1,5.4-0.3,8.1-0.3c2.7,0,5.3,0.2,7.9,0.3v0c0.9,0,1.9,0.1,3,0.1c0.5-0.2,0.7-1.4,0.2-1.8l-2.1-0.2
					c-0.4,0-1.1-0.1-1.1-0.1c-4.9-0.3-4.6-1.7-4.6-6.5v-12.2c0-0.7-0.1-2.6,0.4-3.2c0.4-0.5,1.2-0.4,1.9-0.4c6.6,0,6.6,0.6,9.7,6.2
					l8.6,15.4c0.7,1.2,1.2,2.7,3,2.7h7.4c0.9,0,1.9,0.1,3,0.1C494.3,261.9,494.4,260.7,493.9,260.3z M464.1,236
					c-1.5,0-4.5,0.6-4.5-1.4v-14.1c0-5.5,0.2-6.3,6.8-6.3c7.8,0,12.6,3.9,12.6,11.2c0,3.2-1.1,6.1-4,8.1
					C471.7,235.7,468.1,236,464.1,236z"/>
			</g>
		</g>
		<g>
			<path class="st1" d="M465.7,293.5c0-7.7-0.2-8.9-5.3-9.3l-2-0.1c-0.5-0.3-0.3-1.6,0.2-1.8c4.5,0.1,7.3,0.2,10.5,0.2
				c3.2,0,5.9-0.1,10-0.2c0.5,0.2,0.6,1.5,0.2,1.8l-1.9,0.1c-4.8,0.4-4.9,1.5-4.9,9.3v25.7c0,4.6,0.2,6.6,1.7,8
				c0.9,0.8,2.4,1.7,8.8,1.7c6.9,0,8.6-0.3,9.9-1c1.6-0.9,3.7-3.5,5.4-7.3c0.5-0.4,2-0.1,2,0.4c0,0.8-2.3,8.3-3.4,10.3
				c-4.1-0.1-11.8-0.2-20.2-0.2h-7.5c-3.4,0-6,0.1-10.5,0.2c-0.5-0.2-0.6-1.4-0.2-1.8l2.4-0.2c4.7-0.4,4.9-1.5,4.9-9.2V293.5z"/>
			<path class="st1" d="M683,293.6c0-7.8-0.2-9.1-4.9-9.4l-2-0.1c-0.5-0.3-0.3-1.6,0.2-1.8c4,0.1,6.7,0.2,10,0.2
				c3.2,0,5.9-0.1,9.9-0.2c0.5,0.2,0.6,1.5,0.2,1.8l-2,0.1c-4.7,0.4-4.9,1.6-4.9,9.4v26.2c0,7.8,0.2,8.8,4.9,9.4l2,0.2
				c0.5,0.3,0.3,1.6-0.2,1.8c-4-0.1-6.7-0.2-9.9-0.2c-3.3,0-6.1,0.1-10,0.2c-0.5-0.2-0.6-1.4-0.2-1.8l2-0.2c4.7-0.5,4.9-1.5,4.9-9.4
				V293.6z"/>
			<path class="st1" d="M619.4,329.2c-0.4,0-1.2-0.1-1.2-0.1c-0.8-0.1-1.6-0.2-2.2-0.9c-1-1.1-0.9-4.2-0.9-5.5v-32.3
				c0-1.4-0.3-4.5,0.7-5.6c0.5-0.6,1.6-0.7,2.5-0.7v0c0.6,0,0.6,0,1.1-0.1l2-0.1c0.5-0.3,0.3-1.6-0.2-1.8c-1.1,0-2.1,0-3,0.1v0h-8.7
				c-0.9,0-1.8,0-2.3,1l-17.7,36.9l-15.7-35.7c-0.5-1.3-0.6-2.3-2.2-2.3h-9.1c-0.9,0-2,0-3.1-0.1c-0.5,0.2-0.7,1.5-0.2,1.8l2,0.1
				c0.4,0,1.2,0.1,1.2,0.1c3.4,0.2,3.6,1,3.3,4.6l-2.7,34.7c-0.2,3.5-0.4,5.3-4.1,5.7c0,0-0.8,0.1-1.2,0.1l-2,0.2
				c-0.5,0.4-0.3,1.6,0.2,1.8c1.1,0,3-0.1,3-0.1c1.8-0.1,3.7-0.3,5.6-0.3c2,0,4.1,0.2,6.1,0.3v0c0.9,0,1.9,0.1,3,0.1
				c0.5-0.2,0.7-1.4,0.2-1.8l-2-0.2c-0.5,0-1.1-0.1-1.1-0.1c-5.3-0.4-5.1-4.1-4.8-8.6l2.5-32.2h0.6l17,39.7c0.2,0.5,0.4,1.5,1.3,1.5
				c0.8,0,1-0.9,1.3-1.4l19.1-40.7h0.6v35.4c0,1.4,0.2,4.3-1.3,5.4c-0.8,0.6-3.2,0.9-3.2,0.9c-0.3,0.1-0.7,0.1-1.1,0.1l-2,0.2
				c-0.5,0.4-0.3,1.6,0.2,1.8c1.1,0,3-0.1,3-0.1c2.8-0.1,5.6-0.3,8.4-0.3c2,0,6,0.2,6,0.2c0.9,0,2,0.1,3.1,0.2
				c0.5-0.2,0.7-1.4,0.2-1.8L619.4,329.2z"/>
			<g>
				<g>
					<path class="st1" d="M752.3,329.4l-0.3-0.2c-0.4,0-0.8-0.1-1.1-0.1c-3.2-0.7-4.4-4.6-5.6-7.3l-16.4-38.8
						c-0.2-0.5-0.5-1.5-1.1-1.5c-0.9,0-1.1,1.1-1.4,1.7l-15.7,38.8c-0.6,1.5-2,5-3.1,6.1c-0.8,0.8-1.9,1-3,1.1c0,0-0.9,0.1-1.3,0.1
						l-1.9,0.2c-0.5,0.4-0.3,1.6,0.2,1.8c1.1,0,3-0.1,3-0.1c2.1,0,4.3-0.3,6.4-0.3c1.8,0,3.6,0.2,5.4,0.3c0,0,1.9,0.1,3,0.1
						c0.5-0.2,0.7-1.4,0.2-1.8l-2-0.2c-0.4,0-1.1-0.1-1.1-0.1c-1.9-0.2-4.2-0.5-4.2-2.6c0-1.4,0.7-3,1.1-4.3l2.4-5.8
						c1.2-2.8,0.7-3.1,4-3.1h11c3.9,0,3.3,0,5,3.9l2.6,5.9c0.4,1,1.1,2.7,1.1,3.8c0,1.9-2.1,2.1-4.1,2.2c0,0-0.7,0.1-1.2,0.1l-2,0.1
						c-0.5,0.4-0.3,1.6,0.2,1.8c1.1,0,3-0.1,3-0.1c2.3-0.1,4.6-0.3,6.9-0.3c2.8,0,5.7,0.2,8.5,0.3v0c0.9,0,0.1,0.1,1.2,0.1
						C752.7,331,752.8,329.9,752.3,329.4z M730.8,311.2h-9.6c-0.3,0-3,0.3-3-0.5c0-0.2,0.2-0.7,0.2-0.9l5.7-14.2
						c0.2-0.4,0.7-2.3,1.4-2.3c0.5,0,1.2,2,1.3,2.3l5.7,13.3c0,0.2,0.6,1.4,0.6,1.7C733.2,311.4,731.3,311.2,730.8,311.2z"/>
				</g>
			</g>
		</g>
	</g>
	<g>
		<circle class="st2" cx="117.6" cy="337.5" r="0.3"/>
		<radialGradient id="SVGID_1_" cx="184.0054" cy="299.003" r="134.6228" gradientUnits="userSpaceOnUse">
			<stop  offset="0" style="stop-color:#FFFFFF"/>
			<stop  offset="0.1268" style="stop-color:#FFFEFC"/>
			<stop  offset="0.2381" style="stop-color:#FFFAF1"/>
			<stop  offset="0.3434" style="stop-color:#FFF4DF"/>
			<stop  offset="0.4452" style="stop-color:#FFEBC6"/>
			<stop  offset="0.5434" style="stop-color:#FFE1A5"/>
			<stop  offset="0.6" style="stop-color:#FFD98F"/>
			<stop  offset="0.6203" style="stop-color:#FFD482"/>
			<stop  offset="0.6667" style="stop-color:#FFCB66"/>
			<stop  offset="0.7165" style="stop-color:#FEC44B"/>
			<stop  offset="0.77" style="stop-color:#FEBF34"/>
			<stop  offset="0.829" style="stop-color:#FEBB22"/>
			<stop  offset="0.8978" style="stop-color:#FDB917"/>
			<stop  offset="1" style="stop-color:#FDB913"/>
		</radialGradient>
		<path class="st3" d="M318.6,274.9c-14.3-61-69-106.4-134.3-106.4c-66.4,0-121.9,47-135,109.5l29.1-16.6l16.1,11.2
			c0,0,9.4-4.2,11.4-5.5l11.6,12.2c0,0,25.2,20,25.9,20c0.7,0,22.2-12.5,22.2-12.5l19.3-13.2l16.8,12.2l12.6,2.5l12.9,8.7
			c0,0,31.1-20.7,36.1-23.2c0,0,13.6,5,14.8,4.7c1.2-0.2,22.5-16.7,22.5-16.7L318.6,274.9z"/>
		<radialGradient id="SVGID_2_" cx="46.4501" cy="306.8609" r="2.570674e-03" gradientUnits="userSpaceOnUse">
			<stop  offset="0" style="stop-color:#FFFFFF"/>
			<stop  offset="0.1306" style="stop-color:#FFFEFC"/>
			<stop  offset="0.2452" style="stop-color:#FFFAF1"/>
			<stop  offset="0.3537" style="stop-color:#FFF4DF"/>
			<stop  offset="0.4585" style="stop-color:#FFEBC6"/>
			<stop  offset="0.5597" style="stop-color:#FFE1A5"/>
			<stop  offset="0.618" style="stop-color:#FFD98F"/>
			<stop  offset="0.6374" style="stop-color:#FFD482"/>
			<stop  offset="0.6817" style="stop-color:#FFCB66"/>
			<stop  offset="0.7292" style="stop-color:#FEC44B"/>
			<stop  offset="0.7803" style="stop-color:#FEBF34"/>
			<stop  offset="0.8367" style="stop-color:#FEBB22"/>
			<stop  offset="0.9024" style="stop-color:#FDB917"/>
			<stop  offset="1" style="stop-color:#FDB913"/>
		</radialGradient>
		<path class="st4" d="M46.4,306.5c0,0.1,0,0.3,0,0.4"/>
		<radialGradient id="SVGID_3_" cx="184.1067" cy="305.9497" r="199.9431" gradientUnits="userSpaceOnUse">
			<stop  offset="0.53" style="stop-color:#FFFFFF"/>
			<stop  offset="0.599" style="stop-color:#FFF7E9"/>
			<stop  offset="0.7423" style="stop-color:#FFE3B0"/>
			<stop  offset="0.77" style="stop-color:#FFDFA4"/>
			<stop  offset="0.7983" style="stop-color:#FFDA95"/>
			<stop  offset="0.8551" style="stop-color:#FFCE6F"/>
			<stop  offset="0.88" style="stop-color:#FFC85B"/>
			<stop  offset="0.9057" style="stop-color:#FFC54E"/>
			<stop  offset="0.9641" style="stop-color:#FEBF34"/>
			<stop  offset="1" style="stop-color:#FEBD2A"/>
		</radialGradient>
		<path class="st5" d="M58.5,249.9c0.1-0.1,0.1-0.3,0.2-0.4C58.6,249.7,58.6,249.8,58.5,249.9z"/>
		<radialGradient id="SVGID_4_" cx="184.9719" cy="306.2596" r="201.2651" gradientUnits="userSpaceOnUse">
			<stop  offset="0.53" style="stop-color:#FFFFFF"/>
			<stop  offset="0.599" style="stop-color:#FFF7E9"/>
			<stop  offset="0.7423" style="stop-color:#FFE3B0"/>
			<stop  offset="0.77" style="stop-color:#FFDFA4"/>
			<stop  offset="0.7983" style="stop-color:#FFDA95"/>
			<stop  offset="0.8551" style="stop-color:#FFCE6F"/>
			<stop  offset="0.88" style="stop-color:#FFC85B"/>
			<stop  offset="0.9057" style="stop-color:#FFC54E"/>
			<stop  offset="0.9641" style="stop-color:#FEBF34"/>
			<stop  offset="1" style="stop-color:#FEBD2A"/>
		</radialGradient>
		<path class="st6" d="M60,246.8c0-0.1,0.1-0.1,0.1-0.2C60.1,246.6,60,246.7,60,246.8z"/>
		
			<radialGradient id="SVGID_5_" cx="496.8115" cy="-549.916" r="213.6371" gradientTransform="matrix(0.3719 -0.8354 0.9135 0.4067 500.3687 944.4041)" gradientUnits="userSpaceOnUse">
			<stop  offset="0.53" style="stop-color:#FFFFFF"/>
			<stop  offset="0.599" style="stop-color:#FFF7E9"/>
			<stop  offset="0.7423" style="stop-color:#FFE3B0"/>
			<stop  offset="0.77" style="stop-color:#FFDFA4"/>
			<stop  offset="0.7983" style="stop-color:#FFDA95"/>
			<stop  offset="0.8551" style="stop-color:#FFCE6F"/>
			<stop  offset="0.88" style="stop-color:#FFC85B"/>
			<stop  offset="0.9057" style="stop-color:#FFC54E"/>
			<stop  offset="0.9641" style="stop-color:#FEBF34"/>
			<stop  offset="1" style="stop-color:#FEBD2A"/>
		</radialGradient>
		<path class="st7" d="M58.7,249.6c0.4-0.9,0.9-1.9,1.3-2.8C59.6,247.7,59.1,248.6,58.7,249.6z"/>
		
			<radialGradient id="SVGID_6_" cx="120.2737" cy="306.4342" r="137.9503" gradientTransform="matrix(0.9145 0 0 1 74.4123 0)" gradientUnits="userSpaceOnUse">
			<stop  offset="0.53" style="stop-color:#FFFFFF"/>
			<stop  offset="0.599" style="stop-color:#FFF7E9"/>
			<stop  offset="0.7423" style="stop-color:#FFE3B0"/>
			<stop  offset="0.77" style="stop-color:#FFDFA4"/>
			<stop  offset="0.7983" style="stop-color:#FFDA95"/>
			<stop  offset="0.8551" style="stop-color:#FFCE6F"/>
			<stop  offset="0.88" style="stop-color:#FFC85B"/>
			<stop  offset="0.9057" style="stop-color:#FFC54E"/>
			<stop  offset="0.9641" style="stop-color:#FEBF34"/>
			<stop  offset="1" style="stop-color:#FEBD2A"/>
		</radialGradient>
		<path class="st8" d="M185.7,235.9c1.3,0,2.7,0,4,0.1l4.9-67c-3.4-0.2-6.8-0.4-10.3-0.4c-2.2,0-4.5,0.1-6.7,0.2L181,236
			C182.5,235.9,184.1,235.9,185.7,235.9z"/>
		
			<radialGradient id="SVGID_7_" cx="120.8383" cy="-23.534" r="138.1429" gradientTransform="matrix(0.8479 -0.3426 0.3746 0.9272 90.7581 369.6555)" gradientUnits="userSpaceOnUse">
			<stop  offset="0.53" style="stop-color:#FFFFFF"/>
			<stop  offset="0.599" style="stop-color:#FFF7E9"/>
			<stop  offset="0.7423" style="stop-color:#FFE3B0"/>
			<stop  offset="0.77" style="stop-color:#FFDFA4"/>
			<stop  offset="0.7983" style="stop-color:#FFDA95"/>
			<stop  offset="0.8551" style="stop-color:#FFCE6F"/>
			<stop  offset="0.88" style="stop-color:#FFC85B"/>
			<stop  offset="0.9057" style="stop-color:#FFC54E"/>
			<stop  offset="0.9641" style="stop-color:#FEBF34"/>
			<stop  offset="1" style="stop-color:#FEBD2A"/>
		</radialGradient>
		<path class="st9" d="M162.8,239.7l-20.7-64.5c-5.4,1.7-10.6,3.8-15.7,6.1l28.5,61.7C157.4,241.7,160.1,240.6,162.8,239.7z"/>
		
			<radialGradient id="SVGID_8_" cx="252.1428" cy="-320.5792" r="138.1675" gradientTransform="matrix(0.6578 -0.6352 0.6947 0.7193 241.2478 697.1891)" gradientUnits="userSpaceOnUse">
			<stop  offset="0.53" style="stop-color:#FFFFFF"/>
			<stop  offset="0.599" style="stop-color:#FFF7E9"/>
			<stop  offset="0.7423" style="stop-color:#FFE3B0"/>
			<stop  offset="0.77" style="stop-color:#FFDFA4"/>
			<stop  offset="0.7983" style="stop-color:#FFDA95"/>
			<stop  offset="0.8551" style="stop-color:#FFCE6F"/>
			<stop  offset="0.88" style="stop-color:#FFC85B"/>
			<stop  offset="0.9057" style="stop-color:#FFC54E"/>
			<stop  offset="0.9641" style="stop-color:#FEBF34"/>
			<stop  offset="1" style="stop-color:#FEBD2A"/>
		</radialGradient>
		<path class="st10" d="M139.9,252.8l-43.7-52.4c-4.4,3.6-8.5,7.5-12.4,11.6l49.8,46.9C135.6,256.8,137.8,254.7,139.9,252.8z"/>
		<radialGradient id="SVGID_9_" cx="184.3968" cy="306.4395" r="138.0542" gradientUnits="userSpaceOnUse">
			<stop  offset="0.53" style="stop-color:#FFFFFF"/>
			<stop  offset="0.599" style="stop-color:#FFF7E9"/>
			<stop  offset="0.7423" style="stop-color:#FFE3B0"/>
			<stop  offset="0.77" style="stop-color:#FFDFA4"/>
			<stop  offset="0.7983" style="stop-color:#FFDA95"/>
			<stop  offset="0.8551" style="stop-color:#FFCE6F"/>
			<stop  offset="0.88" style="stop-color:#FFC85B"/>
			<stop  offset="0.9057" style="stop-color:#FFC54E"/>
			<stop  offset="0.9641" style="stop-color:#FEBF34"/>
			<stop  offset="1" style="stop-color:#FEBD2A"/>
		</radialGradient>
		<path class="st11" d="M123.7,272.9l-60.5-32.4c-2.3,4.1-5.6,11.2-7.2,15.3l64.2,24.9C121.2,278.1,122.4,275.4,123.7,272.9z"/>
		
			<radialGradient id="SVGID_10_" cx="255.9288" cy="615.6891" r="138.025" gradientTransform="matrix(0.8479 0.3426 -0.3746 0.9272 198.0389 -352.1155)" gradientUnits="userSpaceOnUse">
			<stop  offset="0.53" style="stop-color:#FFFFFF"/>
			<stop  offset="0.599" style="stop-color:#FFF7E9"/>
			<stop  offset="0.7423" style="stop-color:#FFE3B0"/>
			<stop  offset="0.77" style="stop-color:#FFDFA4"/>
			<stop  offset="0.7983" style="stop-color:#FFDA95"/>
			<stop  offset="0.8551" style="stop-color:#FFCE6F"/>
			<stop  offset="0.88" style="stop-color:#FFC85B"/>
			<stop  offset="0.9057" style="stop-color:#FFC54E"/>
			<stop  offset="0.9641" style="stop-color:#FEBF34"/>
			<stop  offset="1" style="stop-color:#FEBD2A"/>
		</radialGradient>
		<path class="st12" d="M216,242.7l29.5-59.9c-5-2.5-10.3-4.7-15.6-6.6l-22,63.2C210.5,240.4,213.3,241.5,216,242.7z"/>
		
			<radialGradient id="SVGID_11_" cx="512.3533" cy="863.6083" r="137.7224" gradientTransform="matrix(0.6578 0.6352 -0.6947 0.7193 447.322 -640.2001)" gradientUnits="userSpaceOnUse">
			<stop  offset="0.53" style="stop-color:#FFFFFF"/>
			<stop  offset="0.599" style="stop-color:#FFF7E9"/>
			<stop  offset="0.7423" style="stop-color:#FFE3B0"/>
			<stop  offset="0.77" style="stop-color:#FFDFA4"/>
			<stop  offset="0.7983" style="stop-color:#FFDA95"/>
			<stop  offset="0.8551" style="stop-color:#FFCE6F"/>
			<stop  offset="0.88" style="stop-color:#FFC85B"/>
			<stop  offset="0.9057" style="stop-color:#FFC54E"/>
			<stop  offset="0.9641" style="stop-color:#FEBF34"/>
			<stop  offset="1" style="stop-color:#FEBD2A"/>
		</radialGradient>
		<path class="st13" d="M237.2,258.4l49.6-44.3c-3.8-4.2-7.8-8.1-12-11.8l-43.9,50C233.1,254.2,235.2,256.3,237.2,258.4z"/>
		
			<radialGradient id="SVGID_12_" cx="850.1741" cy="1008.3989" r="137.5412" gradientTransform="matrix(0.3719 0.8354 -0.9135 0.4067 789.3948 -813.9157)" gradientUnits="userSpaceOnUse">
			<stop  offset="0.53" style="stop-color:#FFFFFF"/>
			<stop  offset="0.599" style="stop-color:#FFF7E9"/>
			<stop  offset="0.7423" style="stop-color:#FFE3B0"/>
			<stop  offset="0.77" style="stop-color:#FFDFA4"/>
			<stop  offset="0.7983" style="stop-color:#FFDA95"/>
			<stop  offset="0.8551" style="stop-color:#FFCE6F"/>
			<stop  offset="0.88" style="stop-color:#FFC85B"/>
			<stop  offset="0.9057" style="stop-color:#FFC54E"/>
			<stop  offset="0.9641" style="stop-color:#FEBF34"/>
			<stop  offset="1" style="stop-color:#FEBD2A"/>
		</radialGradient>
		<path class="st14" d="M251.3,281.1l62.5-22.4c-1.9-5.3-4.2-10.4-6.8-15.3l-59.2,29.9C249.1,275.8,250.3,278.4,251.3,281.1z"/>
		<radialGradient id="SVGID_13_" cx="184.1243" cy="306.4842" r="137.972" gradientUnits="userSpaceOnUse">
			<stop  offset="0.72" style="stop-color:#FFFFFF"/>
			<stop  offset="0.8086" style="stop-color:#FFF8ED"/>
			<stop  offset="0.9864" style="stop-color:#FFE7BD"/>
			<stop  offset="1" style="stop-color:#FFE6B9"/>
		</radialGradient>
		<path class="st15" d="M165.7,286.9l19.3-13.2l16.8,12.2l12.6,2.5l12.9,8.7c0,0,14-9.3,24.7-16.2c-1.9-4.9-4.2-9.5-7-13.8l46.5-36
			L242,263c-4.4-5.8-9.8-10.9-15.8-15.1l29.2-50l-33.3,47.3c-6.2-3.7-13-6.5-20.3-8.2l8.3-57.6l-13.3,56.6
			c-3.6-0.6-7.4-0.9-11.2-0.9c-4,0-8,0.3-11.9,1l-13.3-56.7l8.4,57.7c-7.2,1.7-14,4.6-20.1,8.3l-33.6-47.6l29.4,50.4
			c-5.9,4.2-11.1,9.3-15.5,15l-49.9-32.2l47,36.4c-2.7,4.2-5,8.6-6.8,13.4c5.8,4.6,23.5,18.5,24.1,18.5
			C144.2,299.4,165.7,286.9,165.7,286.9z"/>
		<path class="st1" d="M318.4,274l-17.7-12.8c0,0-21.3,16.5-22.5,16.7c-1.2,0.2-14.8-4.7-14.8-4.7c-4.9,2.5-36.1,23.2-36.1,23.2
			l-12.9-8.7l-12.6-2.5L185,272.9l-19.3,13.2c0,0-21.5,12.5-22.2,12.5c-0.7,0-25.9-20-25.9-20l-11.6-12.2c-2,1.2-11.4,5.5-11.4,5.5
			l-16.1-11.2l-28.9,16.5c-2,9.4-3.1,19.3-3.1,29.3c0,8.8,0.8,17.4,2.4,25.8c12.1-2.2,34.2-5.3,52.5-3c26.7,3.4,43.4,7.9,71.5,14.2
			c28.2,6.4,48.9,12.4,79.3,9c28.5-3.2,49.1-8.9,68-22.6c1.3-7.6,2-15.4,2-23.4C322.2,295.3,320.9,284.4,318.4,274z"/>
		<path class="st1" d="M318.4,274l-17.7-12.8c0,0-21.3,16.5-22.5,16.7c-1.2,0.2-14.8-4.7-14.8-4.7c-4.9,2.5-36.1,23.2-36.1,23.2
			l-12.9-8.7l-12.6-2.5L185,272.9l-19.3,13.2c0,0-21.5,12.5-22.2,12.5c-0.7,0-25.9-20-25.9-20l-11.6-12.2c-2,1.2-11.4,5.5-11.4,5.5
			l-16.1-11.2l-28.9,16.5c-2,9.4-3.1,19.3-3.1,29.3c0,8.8,0.8,17.4,2.4,25.8c12.1-2.2,34.2-5.3,52.5-3c26.7,3.4,43.4,7.9,71.5,14.2
			c28.2,6.4,48.9,12.4,79.3,9c28.5-3.2,49.1-8.9,68-22.6c1.3-7.6,2-15.4,2-23.4C322.2,295.3,320.9,284.4,318.4,274z"/>
	</g>
	<rect x="-46" y="77" class="st2" width="892" height="369"/>
</g>
<rect x="61" y="386" class="st2" width="684" height="50"/>
<text transform="matrix(1 0 0 1 63.7339 412.4551)" class="st1 st16 st17">Supported by the Province of British Columbia</text>
</svg>
