<svg id="Layer_1" data-name="Layer 1" xmlns="http://www.w3.org/2000/svg" viewBox="0 0 1613.97 221.54"><defs><style>.cls-1{fill:#0042ff;}.cls-2{fill:none;stroke:#fff;stroke-miterlimit:10;stroke-width:17px;}</style></defs><title>blue logo</title><path class="cls-1" d="M278.2,100.17H302q16.25,0,23.59,4.62t7.34,14.71q0,6.85-3.21,11.23a12.83,12.83,0,0,1-8.54,5.28v.52q7.26,1.62,10.48,6.06t3.21,11.81q0,10.45-7.55,16.3t-20.51,5.85H278.2Zm16.2,30.25h9.4q6.58,0,9.54-2t3-6.74q0-4.39-3.21-6.3t-10.16-1.91H294.4Zm0,12.85v19.91H305q6.69,0,9.88-2.56t3.19-7.84q0-9.51-13.58-9.51Z"/><path class="cls-1" d="M382.54,112.55q-9.14,0-14.16,6.87t-5,19.15q0,25.55,19.17,25.55,8,0,19.49-4v13.58a54.12,54.12,0,0,1-21,3.92q-16.67,0-25.5-10.11t-8.83-29A47.39,47.39,0,0,1,351,117.59a31.33,31.33,0,0,1,12.46-13.74,36.85,36.85,0,0,1,19-4.78,51.41,51.41,0,0,1,22.36,5.38l-5.22,13.17a86.71,86.71,0,0,0-8.62-3.55A25.73,25.73,0,0,0,382.54,112.55Z"/><path class="cls-1" d="M509.44,137.63q0,18.86-10.74,28.89t-31,10H446.07V100.17h24q18.7,0,29,9.87T509.44,137.63Zm-16.82.42q0-24.61-21.73-24.61h-8.62v49.74h6.95Q492.62,163.18,492.62,138Z"/><path class="cls-1" d="M550.46,177.6q-14.11,0-22-7.78t-7.94-22q0-14.68,7.34-22.7t20.3-8q12.38,0,19.28,7.05t6.9,19.49v7.73H536.61q.26,6.79,4,10.61t10.55,3.81a43.81,43.81,0,0,0,10-1.1,49.9,49.9,0,0,0,9.82-3.5v12.33a37.43,37.43,0,0,1-8.93,3.11A56.37,56.37,0,0,1,550.46,177.6Zm-2.25-49.22a10.11,10.11,0,0,0-7.94,3.21q-2.87,3.21-3.29,9.12h22.36q-.11-5.9-3.08-9.12A10.44,10.44,0,0,0,548.21,128.38Z"/><path class="cls-1" d="M601.13,176.55l-22.26-58.41h16.67l11.29,33.28a59.39,59.39,0,0,1,2.35,12h.31a52,52,0,0,1,2.35-12l11.23-33.28h16.67l-22.26,58.41Z"/><path class="cls-1" d="M674.54,177.6q-14.11,0-22-7.78t-7.94-22q0-14.68,7.34-22.7t20.3-8q12.38,0,19.28,7.05t6.9,19.49v7.73H660.7q.26,6.79,4,10.61t10.55,3.81a43.81,43.81,0,0,0,10-1.1,49.9,49.9,0,0,0,9.82-3.5v12.33a37.43,37.43,0,0,1-8.93,3.11A56.37,56.37,0,0,1,674.54,177.6Zm-2.25-49.22a10.11,10.11,0,0,0-7.94,3.21q-2.87,3.21-3.29,9.12h22.36q-.11-5.9-3.08-9.12A10.44,10.44,0,0,0,672.29,128.38Z"/><path class="cls-1" d="M727.26,176.55H711.32V95.26h15.94Z"/><path class="cls-1" d="M797.06,147.24q0,14.26-7.52,22.31t-21,8a29.31,29.31,0,0,1-14.84-3.68,24.51,24.51,0,0,1-9.87-10.58,35.55,35.55,0,0,1-3.45-16.09q0-14.31,7.47-22.26t21-7.94a29.48,29.48,0,0,1,14.84,3.66,24.42,24.42,0,0,1,9.87,10.5A35.22,35.22,0,0,1,797.06,147.24Zm-40.39,0q0,8.67,2.85,13.11t9.27,4.44q6.38,0,9.17-4.41t2.79-13.14q0-8.67-2.82-13t-9.25-4.34q-6.37,0-9.2,4.31T756.67,147.24Z"/><path class="cls-1" d="M842.3,177.6q-10.29,0-16.14-7.47h-.84q.83,7.32.84,8.46v23.67H810.22V118.14h13l2.25,7.58h.73q5.59-8.67,16.56-8.67,10.34,0,16.2,8t5.85,22.2A43.83,43.83,0,0,1,862,163.49a22.79,22.79,0,0,1-7.81,10.5A20,20,0,0,1,842.3,177.6Zm-4.7-47.81q-5.9,0-8.62,3.63t-2.82,12v1.72q0,9.4,2.79,13.48t8.86,4.08q10.71,0,10.71-17.66,0-8.62-2.64-12.93T837.6,129.79Z"/><path class="cls-1" d="M904.37,177.6q-14.11,0-22-7.78t-7.94-22q0-14.68,7.34-22.7t20.3-8q12.38,0,19.28,7.05t6.9,19.49v7.73H890.53q.26,6.79,4,10.61t10.55,3.81a43.81,43.81,0,0,0,10-1.1,49.9,49.9,0,0,0,9.82-3.5v12.33a37.43,37.43,0,0,1-8.93,3.11A56.37,56.37,0,0,1,904.37,177.6Zm-2.25-49.22a10.11,10.11,0,0,0-7.94,3.21q-2.87,3.21-3.29,9.12h22.36q-.11-5.9-3.08-9.12A10.44,10.44,0,0,0,902.12,128.38Z"/><path class="cls-1" d="M973.75,117a25.69,25.69,0,0,1,5.38.47l-1.2,14.94a18.29,18.29,0,0,0-4.7-.52q-7.63,0-11.89,3.92t-4.26,11v29.73H941.15V118.14h12.07l2.35,9.82h.78a22,22,0,0,1,7.34-7.92A18.1,18.1,0,0,1,973.75,117Z"/><path class="cls-1" d="M1030.49,159.21q0,9-6.24,13.69t-18.68,4.7a58.63,58.63,0,0,1-10.87-.86,41,41,0,0,1-8.41-2.53V161a55.52,55.52,0,0,0,10,3.5,40.51,40.51,0,0,0,9.8,1.41q8.67,0,8.67-5a4.19,4.19,0,0,0-1.15-3.06,16.67,16.67,0,0,0-4-2.67q-2.82-1.49-7.52-3.47a47.23,47.23,0,0,1-9.9-5.22,14.7,14.7,0,0,1-4.6-5.51,18.19,18.19,0,0,1-1.44-7.65,13.88,13.88,0,0,1,6-12q6-4.26,17.11-4.26a48.58,48.58,0,0,1,20.53,4.6l-4.81,11.49q-4.39-1.88-8.2-3.08a25.76,25.76,0,0,0-7.78-1.2q-7.05,0-7.05,3.81a4.48,4.48,0,0,0,2.27,3.71q2.27,1.57,10,4.65a46.31,46.31,0,0,1,10,5.17,15.3,15.3,0,0,1,4.7,5.54A17,17,0,0,1,1030.49,159.21Z"/><path class="cls-1" d="M1055.78,100.17l.73,1.15a160.47,160.47,0,0,1-9.2,25h-11.44q3.6-15.46,5.22-26.18Z"/><path class="cls-1" d="M1139.16,176.55h-44V100.17h44v13.27h-27.79v16.77h25.86v13.27h-25.86v19.7h27.79Z"/><path class="cls-1" d="M1165.81,146.72,1147,118.14h18.08l11.34,18.6,11.44-18.6h18.08l-19,28.58,19.91,29.83h-18.13l-12.28-20-12.33,20H1146Z"/><path class="cls-1" d="M1239.42,177.6q-27.27,0-27.27-29.94,0-14.89,7.42-22.75t21.26-7.86a40.55,40.55,0,0,1,18.18,4l-4.7,12.33q-3.76-1.51-7-2.48a22.57,22.57,0,0,0-6.48-1q-12.44,0-12.44,17.66,0,17.14,12.44,17.14a28.34,28.34,0,0,0,8.52-1.23,30.7,30.7,0,0,0,7.84-3.84v13.64a25.68,25.68,0,0,1-7.81,3.4A43.94,43.94,0,0,1,1239.42,177.6Z"/><path class="cls-1" d="M1324.64,176.55H1308.7V142.44q0-12.64-9.4-12.64-6.69,0-9.67,4.55t-3,14.73v27.48h-15.94V95.26h15.94v16.56q0,1.93-.37,9.09l-.37,4.7h.84q5.33-8.57,16.93-8.57,10.29,0,15.62,5.54t5.33,15.88Z"/><path class="cls-1" d="M1378.14,176.55l-3.08-7.94h-.42a23.54,23.54,0,0,1-8.28,7,26.78,26.78,0,0,1-11.1,2q-8.41,0-13.24-4.81t-4.83-13.69q0-9.3,6.5-13.71t19.62-4.88l10.14-.31v-2.56q0-8.88-9.09-8.88-7,0-16.46,4.23l-5.28-10.76a47.49,47.49,0,0,1,22.36-5.28q11.76,0,18,5.12t6.27,15.57v38.92Zm-4.7-27.06-6.17.21q-6.95.21-10.34,2.51a7.88,7.88,0,0,0-3.4,7q0,6.74,7.73,6.74a12.25,12.25,0,0,0,8.86-3.19,11.2,11.2,0,0,0,3.32-8.46Z"/><path class="cls-1" d="M1459.59,176.55h-15.94V142.44q0-6.32-2.25-9.48t-7.16-3.16q-6.69,0-9.67,4.47t-3,14.81v27.48h-15.94V118.14h12.17l2.14,7.47h.89a16.85,16.85,0,0,1,7.34-6.4,25,25,0,0,1,10.63-2.17q10.19,0,15.46,5.51t5.28,15.91Z"/><path class="cls-1" d="M1526.83,118.14v8.1l-9.14,2.35a15.94,15.94,0,0,1,2.51,8.78q0,9.4-6.56,14.66t-18.21,5.25l-2.87-.16-2.35-.26a5.3,5.3,0,0,0-2.46,4.18q0,3.45,8.78,3.45h9.93q9.61,0,14.66,4.13t5,12.12a18,18,0,0,1-8.54,15.88q-8.54,5.64-24.53,5.64-12.23,0-18.68-4.26a13.52,13.52,0,0,1-6.45-11.94,12.49,12.49,0,0,1,3.29-8.83q3.29-3.55,9.67-5.07a10.65,10.65,0,0,1-4.28-3.42,8.41,8.41,0,0,1,.1-10.61,22.36,22.36,0,0,1,5.59-4.36,15.68,15.68,0,0,1-7.29-6.37,19.4,19.4,0,0,1-2.69-10.34q0-9.56,6.22-14.79t17.76-5.22a45.59,45.59,0,0,1,5.83.44q3.37.44,4.31.65Zm-45.09,66.67a5.77,5.77,0,0,0,3.16,5.17q3.16,1.88,8.86,1.88,8.57,0,13.43-2.35t4.86-6.43a4.55,4.55,0,0,0-2.87-4.55q-2.87-1.25-8.88-1.25H1492a12.49,12.49,0,0,0-7.34,2.06A6.36,6.36,0,0,0,1481.74,184.81Zm5.8-47.54a11.89,11.89,0,0,0,2.17,7.52q2.17,2.77,6.61,2.77t6.58-2.77a12.21,12.21,0,0,0,2.09-7.52q0-10.55-8.67-10.55T1487.54,137.27Z"/><path class="cls-1" d="M1562.88,177.6q-14.11,0-22-7.78t-7.94-22q0-14.68,7.34-22.7t20.3-8q12.38,0,19.28,7.05t6.9,19.49v7.73H1549q.26,6.79,4,10.61t10.55,3.81a43.81,43.81,0,0,0,10-1.1,49.9,49.9,0,0,0,9.82-3.5v12.33a37.43,37.43,0,0,1-8.93,3.11A56.37,56.37,0,0,1,1562.88,177.6Zm-2.25-49.22a10.11,10.11,0,0,0-7.94,3.21q-2.87,3.21-3.29,9.12h22.36q-.11-5.9-3.08-9.12A10.44,10.44,0,0,0,1560.63,128.38Z"/><rect class="cls-1" width="221.54" height="221.54"/><line class="cls-2" x1="165.06" y1="230.53" x2="67.31" y2="72.08"/><line class="cls-2" x1="220.43" y1="-13.09" x2="60.7" y2="231.55"/><rect class="cls-1" x="18.85" y="34.62" width="67.69" height="43.08"/></svg>