<?xml version="1.0" encoding="utf-8"?>
<!-- Generator: Adobe Illustrator 20.1.0, SVG Export Plug-In . SVG Version: 6.00 Build 0)  -->
<svg version="1.1" id="Layer_2" xmlns="http://www.w3.org/2000/svg" xmlns:xlink="http://www.w3.org/1999/xlink" x="0px" y="0px"
	 viewBox="0 0 792 221.7" style="enable-background:new 0 0 792 221.7;" xml:space="preserve">
<style type="text/css">
	.st0{fill:#0069D9;}
	.st1{fill:#109AD7;}
	.st2{fill:#F16924;}
	.st3{fill:#FCB918;}
	.st4{fill:#FFFFFF;}
</style>
<g>
	<polygon class="st0" points="65.5,184.1 97.2,184.1 106.8,167.1 90.9,139 	"/>
	<polygon class="st1" points="148.2,37.5 116.5,37.5 106.8,54.7 122.7,82.8 	"/>
	<polygon class="st2" points="65.4,37.5 33.7,37.5 75.1,110.9 90.9,82.9 	"/>
	<polygon class="st2" points="122.7,139 106.8,110.9 91,139 106.8,167.1 116.4,184.1 148.1,184.1 	"/>
	<polygon class="st1" points="91,82.9 75.1,110.9 33.8,184.1 65.5,184.1 91,139 106.8,110.9 	"/>
	<polygon class="st3" points="122.6,139 148.2,184.1 179.9,184.1 138.5,110.9 	"/>
	<polygon class="st0" points="148.3,37.5 122.7,82.8 106.8,110.9 122.7,139 138.5,110.9 180,37.5 	"/>
	<polygon class="st3" points="106.8,54.8 97.1,37.5 65.4,37.5 91,82.8 106.8,110.9 122.7,82.8 	"/>
</g>
<g>
	<path class="st4" d="M166.1,81.2h18.4c8.4,0,14.4,1.2,18.2,3.6s5.7,6.2,5.7,11.4c0,3.5-0.8,6.4-2.5,8.7c-1.7,2.3-3.9,3.6-6.6,4.1
		v0.4c3.7,0.8,6.4,2.4,8.1,4.7c1.7,2.3,2.5,5.3,2.5,9.1c0,5.4-1.9,9.6-5.8,12.6c-3.9,3-9.2,4.5-15.8,4.5h-22.1L166.1,81.2
		L166.1,81.2z M178.6,104.6h7.3c3.4,0,5.8-0.5,7.4-1.6c1.5-1.1,2.3-2.8,2.3-5.2c0-2.3-0.8-3.9-2.5-4.9s-4.3-1.5-7.9-1.5h-6.6V104.6z
		 M178.6,114.5v15.4h8.2c3.4,0,6-0.7,7.6-2s2.5-3.3,2.5-6.1c0-4.9-3.5-7.3-10.5-7.3C186.4,114.5,178.6,114.5,178.6,114.5z"/>
	<path class="st4" d="M241.8,90.8c-4.7,0-8.4,1.8-10.9,5.3c-2.6,3.5-3.9,8.5-3.9,14.8c0,13.2,4.9,19.7,14.8,19.7
		c4.1,0,9.2-1,15.1-3.1V138c-4.8,2-10.3,3-16.2,3c-8.6,0-15.2-2.6-19.7-7.8s-6.8-12.7-6.8-22.4c0-6.1,1.1-11.5,3.4-16.1
		c2.2-4.6,5.4-8.2,9.6-10.6c4.2-2.5,9.1-3.7,14.7-3.7c5.7,0,11.5,1.4,17.3,4.2l-4,10.2c-2.2-1-4.4-2-6.7-2.7
		C246.1,91.2,243.9,90.8,241.8,90.8z"/>
	<path class="st4" d="M313.4,110.2c0,9.7-2.8,17.2-8.3,22.3c-5.5,5.2-13.5,7.7-24,7.7h-16.7v-59H283c9.6,0,17.1,2.5,22.4,7.6
		C310.7,93.9,313.4,101,313.4,110.2z M300.4,110.5c0-12.7-5.6-19-16.8-19h-6.7v38.4h5.4C294.4,129.9,300.4,123.4,300.4,110.5z"/>
	<path class="st4" d="M340.1,141c-7.3,0-12.9-2-17-6s-6.1-9.7-6.1-17c0-7.6,1.9-13.4,5.7-17.5c3.8-4.1,9-6.2,15.7-6.2
		c6.4,0,11.3,1.8,14.9,5.4s5.3,8.7,5.3,15.1v6h-29.1c0.1,3.5,1.2,6.2,3.1,8.2s4.7,2.9,8.2,2.9c2.7,0,5.3-0.3,7.7-0.8
		c2.4-0.6,5-1.5,7.6-2.7v9.5c-2.2,1.1-4.5,1.9-6.9,2.4C346.6,140.8,343.7,141,340.1,141z M338.4,103c-2.6,0-4.7,0.8-6.1,2.5
		c-1.5,1.7-2.3,4-2.5,7H347c-0.1-3-0.8-5.4-2.4-7C343.1,103.8,341,103,338.4,103z"/>
	<path class="st4" d="M374.3,140.2l-17.2-45.1H370l8.7,25.7c1,3.3,1.6,6.3,1.8,9.2h0.2c0.1-2.6,0.7-5.7,1.8-9.2l8.7-25.7h12.9
		L387,140.2H374.3z"/>
	<path class="st4" d="M440.6,140.2h-34v-59h34v10.3h-21.5v13h20v10.3h-20V130h21.5V140.2z"/>
	<path class="st4" d="M456.2,117.2l-14.5-22.1h14l8.8,14.4l8.8-14.4h14l-14.7,22.1l15.4,23h-14l-9.5-15.5l-9.5,15.5h-14L456.2,117.2
		z"/>
	<path class="st4" d="M508.2,141c-14,0-21.1-7.7-21.1-23.1c0-7.7,1.9-13.5,5.7-17.6c3.8-4,9.3-6.1,16.4-6.1c5.2,0,9.9,1,14,3.1
		l-3.6,9.5c-1.9-0.8-3.7-1.4-5.4-1.9s-3.3-0.7-5-0.7c-6.4,0-9.6,4.5-9.6,13.6c0,8.8,3.2,13.2,9.6,13.2c2.4,0,4.6-0.3,6.6-0.9
		c2-0.6,4-1.6,6.1-3v10.5c-2,1.3-4,2.1-6,2.6C513.8,140.8,511.2,141,508.2,141z"/>
	<path class="st4" d="M569,140.2h-12.3v-26.4c0-6.5-2.4-9.8-7.3-9.8c-3.4,0-5.9,1.2-7.5,3.5c-1.5,2.3-2.3,6.1-2.3,11.4v21.2h-12.3
		V77.4h12.3v12.8c0,1-0.1,3.3-0.3,7l-0.3,3.6h0.6c2.7-4.4,7.1-6.6,13.1-6.6c5.3,0,9.3,1.4,12.1,4.3c2.7,2.9,4.1,6.9,4.1,12.3v29.4
		H569z"/>
	<path class="st4" d="M605.4,140.2l-2.4-6.1h-0.3c-2.1,2.6-4.2,4.4-6.4,5.4s-5.1,1.5-8.6,1.5c-4.3,0-7.7-1.2-10.2-3.7
		s-3.7-6-3.7-10.6c0-4.8,1.7-8.3,5-10.6c3.4-2.3,8.4-3.5,15.2-3.8l7.8-0.2v-2c0-4.6-2.3-6.9-7-6.9c-3.6,0-7.8,1.1-12.7,3.3l-4.1-8.3
		c5.2-2.7,11-4.1,17.3-4.1c6.1,0,10.7,1.3,13.9,4c3.2,2.6,4.8,6.6,4.8,12v30.1H605.4z M601.8,119.3l-4.8,0.2c-3.6,0.1-6.2,0.8-8,1.9
		c-1.7,1.2-2.6,3-2.6,5.4c0,3.5,2,5.2,6,5.2c2.9,0,5.1-0.8,6.8-2.5c1.7-1.6,2.6-3.8,2.6-6.5V119.3z"/>
	<path class="st4" d="M663.4,140.2h-12.3v-26.4c0-3.3-0.6-5.7-1.7-7.3c-1.2-1.6-3-2.4-5.5-2.4c-3.4,0-5.9,1.2-7.5,3.5
		c-1.5,2.3-2.3,6.1-2.3,11.4v21.2h-12.3V95.1h9.4l1.7,5.8h0.7c1.4-2.2,3.3-3.8,5.7-4.9s5.1-1.7,8.2-1.7c5.2,0,9.2,1.4,11.9,4.3
		c2.7,2.8,4.1,6.9,4.1,12.3v29.3H663.4z"/>
	<path class="st4" d="M710.4,95.1v6.3l-7.1,1.8c1.3,2,1.9,4.3,1.9,6.8c0,4.8-1.7,8.6-5.1,11.3c-3.4,2.7-8.1,4.1-14.1,4.1l-2.2-0.1
		l-1.8-0.2c-1.3,1-1.9,2-1.9,3.2c0,1.8,2.3,2.7,6.8,2.7h7.7c5,0,8.7,1.1,11.3,3.2c2.6,2.1,3.9,5.2,3.9,9.4c0,5.3-2.2,9.4-6.6,12.3
		c-4.4,2.9-10.7,4.4-19,4.4c-6.3,0-11.1-1.1-14.4-3.3c-3.3-2.2-5-5.3-5-9.2c0-2.7,0.8-5,2.5-6.8s4.2-3.1,7.5-3.9
		c-1.3-0.5-2.4-1.4-3.3-2.6c-0.9-1.2-1.4-2.5-1.4-3.9c0-1.7,0.5-3.2,1.5-4.3c1-1.1,2.4-2.3,4.3-3.4c-2.4-1-4.2-2.7-5.6-4.9
		c-1.4-2.3-2.1-4.9-2.1-8c0-4.9,1.6-8.7,4.8-11.4c3.2-2.7,7.8-4,13.7-4c1.3,0,2.8,0.1,4.5,0.3c1.7,0.2,2.8,0.4,3.3,0.5h15.9V95.1z
		 M675.5,146.6c0,1.7,0.8,3,2.4,4c1.6,1,3.9,1.5,6.8,1.5c4.4,0,7.9-0.6,10.4-1.8s3.8-2.9,3.8-5c0-1.7-0.7-2.9-2.2-3.5s-3.8-1-6.9-1
		h-6.4c-2.3,0-4.2,0.5-5.7,1.6C676.3,143.5,675.5,144.9,675.5,146.6z M680,109.9c0,2.4,0.6,4.4,1.7,5.8c1.1,1.4,2.8,2.1,5.1,2.1
		s4-0.7,5.1-2.1s1.6-3.4,1.6-5.8c0-5.4-2.2-8.2-6.7-8.2C682.3,101.7,680,104.4,680,109.9z"/>
	<path class="st4" d="M733.3,141c-7.3,0-12.9-2-17-6s-6.1-9.7-6.1-17c0-7.6,1.9-13.4,5.7-17.5s9-6.2,15.7-6.2
		c6.4,0,11.3,1.8,14.9,5.4c3.6,3.6,5.3,8.7,5.3,15.1v6h-29.1c0.1,3.5,1.2,6.2,3.1,8.2c1.9,2,4.7,2.9,8.2,2.9c2.7,0,5.3-0.3,7.7-0.8
		c2.4-0.6,5-1.5,7.6-2.7v9.5c-2.2,1.1-4.5,1.9-6.9,2.4C739.8,140.8,736.8,141,733.3,141z M731.5,103c-2.6,0-4.7,0.8-6.1,2.5
		c-1.5,1.7-2.3,4-2.5,7h17.3c-0.1-3-0.8-5.4-2.4-7C736.2,103.8,734.1,103,731.5,103z"/>
</g>
</svg>
